<svg id="Layer_1" data-name="Layer 1" xmlns="http://www.w3.org/2000/svg" viewBox="0 0 565.69 565.69">
  <defs>
    <style>
      .cls-1 {
        fill: #fff;
      }
    </style>
  </defs>
  <title>mobile-icon</title>
  <path class="cls-1" d="M390.53,3H175.15a41.05,41.05,0,0,0-41,41V522a41.05,41.05,0,0,0,41,41H390.53a41.05,41.05,0,0,0,41-41V44a41.05,41.05,0,0,0-41-41Zm31.19,519a31.19,31.19,0,0,1-31.19,31.19H175.15A31.19,31.19,0,0,1,144,522V44a31.19,31.19,0,0,1,31.19-31.19H216v3.92a16,16,0,0,0,16,16H333.64a16,16,0,0,0,16-16V12.85h40.88A31.19,31.19,0,0,1,421.72,44Z"/>
</svg>
