<svg id="Layer_1" data-name="Layer 1" xmlns="http://www.w3.org/2000/svg" viewBox="0 0 196.89 198.93">
  <title>tick</title>
  <g id="Tick">
    <path d="M165.5,77.36l25.33-46.24c5.89-12.05,7.24-20.33,2.24-25.33C186-1.28,179,0,172.66,10.12L130.1,86.22,87.57,162.84C74.31,181.2,38.09,130.77,19,115.18c-7.74-6.32-23.21,9.89-16.69,21.31l2.57,3.1L23,155.76c19.37,18,39.81,41.57,53.75,41.38,10-.14,15.75-1.14,24.69-8.66l5.74-6.87L119,159.85c7.63-13.54,9.85-16.8,14.75-25.65,8-15.53,10.94-19.77,19.35-36.07Z"/>
  </g>
</svg>
