<svg id="Layer_1" data-name="Layer 1" xmlns="http://www.w3.org/2000/svg" viewBox="0 0 385 385">
  <defs>
    <style>
      .cls-1 {
        font-size: 113.39px;
        font-family: MyriadPro-Regular, Myriad Pro;
      }
    </style>
  </defs>
  <title>URL</title>
  <path d="M330.58,88.5a25,25,0,0,1,24.92,24.92V272.35a25,25,0,0,1-24.92,24.92H55.42A25,25,0,0,1,30.5,272.35V113.42A25,25,0,0,1,55.42,88.5H330.58m0-8.5H55.42A33.42,33.42,0,0,0,22,113.42V272.35a33.42,33.42,0,0,0,33.42,33.42H330.58A33.42,33.42,0,0,0,364,272.35V113.42A33.42,33.42,0,0,0,330.58,80Z"/>
  <text class="cls-1" transform="translate(97.21 230.47)">URL</text>
</svg>
